<?xml version="1.0" encoding="utf-8"?>
<!-- Generator: Adobe Illustrator 16.0.0, SVG Export Plug-In . SVG Version: 6.00 Build 0)  -->
<!DOCTYPE svg PUBLIC "-//W3C//DTD SVG 1.1//EN" "http://www.w3.org/Graphics/SVG/1.1/DTD/svg11.dtd">
<svg version="1.1" id="Layer_1" xmlns="http://www.w3.org/2000/svg" xmlns:xlink="http://www.w3.org/1999/xlink" x="0px" y="0px"
	 width="2000px" height="2000px" viewBox="0 0 2000 2000" enable-background="new 0 0 2000 2000" xml:space="preserve">
<linearGradient id="SVGID_1_" gradientUnits="userSpaceOnUse" x1="1075.751" y1="1116.2549" x2="1033.9509" y2="1042.4548">
	<stop  offset="0" style="stop-color:#F68F71"/>
	<stop  offset="0" style="stop-color:#F68F71"/>
	<stop  offset="0.41" style="stop-color:#DC5242"/>
	<stop  offset="0.99" style="stop-color:#A72C32"/>
	<stop  offset="1" style="stop-color:#A72C32"/>
</linearGradient>
<polygon fill-rule="evenodd" clip-rule="evenodd" fill="url(#SVGID_1_)" points="942.06,1098.29 1088.529,1088.351 1099.811,940.66 
	1055.18,1031.12 "/>
<linearGradient id="SVGID_2_" gradientUnits="userSpaceOnUse" x1="1096.5742" y1="1054.2666" x2="1042.7056" y2="1018.1175">
	<stop  offset="0" style="stop-color:#9B3F34"/>
	<stop  offset="0" style="stop-color:#9B3F34"/>
	<stop  offset="0.99" style="stop-color:#A23E36"/>
	<stop  offset="1" style="stop-color:#A23E36"/>
</linearGradient>
<polygon fill-rule="evenodd" clip-rule="evenodd" fill="url(#SVGID_2_)" points="1041.89,1046.64 1088.77,1088.25 1076.18,1001.36 
	"/>
<linearGradient id="SVGID_3_" gradientUnits="userSpaceOnUse" x1="1053.4756" y1="1118.4941" x2="999.6072" y2="1082.3452">
	<stop  offset="0" style="stop-color:#9B3F34"/>
	<stop  offset="0" style="stop-color:#9B3F34"/>
	<stop  offset="0.99" style="stop-color:#A23E36"/>
	<stop  offset="1" style="stop-color:#A23E36"/>
</linearGradient>
<polygon fill-rule="evenodd" clip-rule="evenodd" fill="url(#SVGID_3_)" points="942.55,1098.101 1088.939,1088.25 996.71,1081.01 
	"/>
<linearGradient id="SVGID_4_" gradientUnits="userSpaceOnUse" x1="940.3765" y1="1028.1016" x2="948.7275" y2="1082.3752">
	<stop  offset="0" style="stop-color:#FFFFFF"/>
	<stop  offset="0" style="stop-color:#FFFFFF"/>
	<stop  offset="0.23" style="stop-color:#E28B6F"/>
	<stop  offset="0.46" style="stop-color:#DA6144"/>
	<stop  offset="0.99" style="stop-color:#A60003"/>
	<stop  offset="1" style="stop-color:#A60003"/>
</linearGradient>
<polygon fill-rule="evenodd" clip-rule="evenodd" fill="url(#SVGID_4_)" points="915.02,1033.48 942.68,1098.12 965.72,1022.64 "/>
<linearGradient id="SVGID_5_" gradientUnits="userSpaceOnUse" x1="997.813" y1="977.4214" x2="1000.89" y2="1032.8108">
	<stop  offset="0" style="stop-color:#FFFFFF"/>
	<stop  offset="0" style="stop-color:#FFFFFF"/>
	<stop  offset="0.23" style="stop-color:#E08A6D"/>
	<stop  offset="0.56" style="stop-color:#C14435"/>
	<stop  offset="0.99" style="stop-color:#B13430"/>
	<stop  offset="1" style="stop-color:#B13430"/>
</linearGradient>
<polygon fill-rule="evenodd" clip-rule="evenodd" fill="url(#SVGID_5_)" points="960.01,1020.72 1041.88,1046.89 1020.68,963.85 "/>
<linearGradient id="SVGID_6_" gradientUnits="userSpaceOnUse" x1="1048.7832" y1="926.2344" x2="1057.9943" y2="965.9294">
	<stop  offset="0" style="stop-color:#FFFFFF"/>
	<stop  offset="0" style="stop-color:#FFFFFF"/>
	<stop  offset="0.18" style="stop-color:#DF8063"/>
	<stop  offset="0.4" style="stop-color:#C94D37"/>
	<stop  offset="0.99" style="stop-color:#B13430"/>
	<stop  offset="1" style="stop-color:#B13430"/>
</linearGradient>
<polygon fill-rule="evenodd" clip-rule="evenodd" fill="url(#SVGID_6_)" points="1021.68,969.81 1095,965.02 1037.65,918.18 "/>
<linearGradient id="SVGID_7_" gradientUnits="userSpaceOnUse" x1="1020.6563" y1="912.2524" x2="1060.3497" y2="892.4056">
	<stop  offset="0" style="stop-color:#FFFFFF"/>
	<stop  offset="0" style="stop-color:#FFFFFF"/>
	<stop  offset="0.54" style="stop-color:#C94838"/>
	<stop  offset="0.99" style="stop-color:#C12D2F"/>
	<stop  offset="1" style="stop-color:#C12D2F"/>
</linearGradient>
<polygon fill-rule="evenodd" clip-rule="evenodd" fill="url(#SVGID_7_)" points="1013.17,901.23 1068.18,901.48 1034.45,920.12 "/>
<linearGradient id="SVGID_8_" gradientUnits="userSpaceOnUse" x1="905.5845" y1="1014.2637" x2="908.8515" y2="1046.9736">
	<stop  offset="0" style="stop-color:#FFFFFF"/>
	<stop  offset="0" style="stop-color:#FFFFFF"/>
	<stop  offset="0.31" style="stop-color:#DA6548"/>
	<stop  offset="0.99" style="stop-color:#C14433"/>
	<stop  offset="1" style="stop-color:#C14433"/>
</linearGradient>
<polygon fill-rule="evenodd" clip-rule="evenodd" fill="url(#SVGID_8_)" points="904.38,1002.33 901.68,1058.8 915.81,1033.03 "/>
<path fill-rule="evenodd" clip-rule="evenodd" fill="#FFFFFF" d="M903.62,1001.36l11.5,32.62l49.97-11.211l57.05-53.02l16.101-51.14
	l-25.351-17.9l-43.1,16.13c-13.58,12.63-39.93,37.62-40.88,38.09C927.97,955.41,911.51,986.52,903.62,1001.36z"/>
<linearGradient id="SVGID_9_" gradientUnits="userSpaceOnUse" x1="883.1201" y1="1055.8193" x2="1036.6938" y2="897.9026">
	<stop  offset="0" style="stop-color:#BD0012"/>
	<stop  offset="0" style="stop-color:#BD0012"/>
	<stop  offset="0.07" style="stop-color:#FFFFFF"/>
	<stop  offset="0.17" style="stop-color:#FFFFFF"/>
	<stop  offset="0.27" style="stop-color:#C95841"/>
	<stop  offset="0.33" style="stop-color:#983734"/>
	<stop  offset="0.46" style="stop-color:#AE4231"/>
	<stop  offset="0.72" style="stop-color:#B93E2F"/>
	<stop  offset="0.99" style="stop-color:#DE4E2B"/>
	<stop  offset="1" style="stop-color:#DE4E2B"/>
</linearGradient>
<path fill-rule="evenodd" clip-rule="evenodd" fill="url(#SVGID_9_)" d="M944,942.76c29.43-29.18,67.37-46.42,81.93-31.73
	c14.551,14.69-0.88,50.39-30.31,79.56c-29.43,29.17-66.9,47.36-81.45,32.67C899.61,1008.58,914.57,971.93,944,942.76z"/>
<linearGradient id="SVGID_10_" gradientUnits="userSpaceOnUse" x1="1000.7568" y1="1071.7422" x2="954.5028" y2="1060.3263">
	<stop  offset="0" style="stop-color:#9F3633"/>
	<stop  offset="0" style="stop-color:#9F3633"/>
	<stop  offset="0.54" style="stop-color:#A73532"/>
	<stop  offset="0.99" style="stop-color:#B13439"/>
	<stop  offset="1" style="stop-color:#B13439"/>
</linearGradient>
<path fill-rule="evenodd" clip-rule="evenodd" fill="url(#SVGID_10_)" d="M942.68,1098.09l22.86-75.72l75.92,24.39
	C1014.01,1072.5,983.48,1094.26,942.68,1098.09z"/>
<linearGradient id="SVGID_11_" gradientUnits="userSpaceOnUse" x1="1080.2061" y1="1016.2246" x2="1039.1123" y2="979.3934">
	<stop  offset="0" style="stop-color:#923C36"/>
	<stop  offset="0" style="stop-color:#923C36"/>
	<stop  offset="0.99" style="stop-color:#AA3531"/>
	<stop  offset="1" style="stop-color:#AA3531"/>
</linearGradient>
<path fill-rule="evenodd" clip-rule="evenodd" fill="url(#SVGID_11_)" d="M1022.24,969.6l19.49,77.2
	c22.93-24.11,43.51-50.03,53.589-82.09L1022.24,969.6z"/>
<linearGradient id="SVGID_12_" gradientUnits="userSpaceOnUse" x1="1095.3027" y1="948.646" x2="1074.8326" y2="926.762">
	<stop  offset="0" style="stop-color:#8D3E36"/>
	<stop  offset="0" style="stop-color:#8D3E36"/>
	<stop  offset="0.99" style="stop-color:#AA3E37"/>
	<stop  offset="1" style="stop-color:#AA3E37"/>
</linearGradient>
<path fill-rule="evenodd" clip-rule="evenodd" fill="url(#SVGID_12_)" d="M1095.12,965.1c7.8-23.54,9.6-57.31-27.181-63.58
	l-30.18,16.67L1095.12,965.1z"/>
<path fill-rule="evenodd" clip-rule="evenodd" fill="#AA3E35" d="M901.68,1058.46c1.08,38.851,29.11,39.43,41.05,39.771
	l-27.58-64.411L901.68,1058.46z"/>
<radialGradient id="SVGID_13_" cx="1045.5098" cy="980.1001" r="50.3604" gradientUnits="userSpaceOnUse">
	<stop  offset="0" style="stop-color:#B13430"/>
	<stop  offset="0" style="stop-color:#B13430"/>
	<stop  offset="0.99" style="stop-color:#923934"/>
	<stop  offset="1" style="stop-color:#923934"/>
</radialGradient>
<path fill-rule="evenodd" clip-rule="evenodd" fill="url(#SVGID_13_)" d="M1022.35,969.72c17.62,10.83,53.131,32.58,53.851,32.98
	c1.119,0.63,15.31-23.93,18.53-37.81L1022.35,969.72z"/>
<radialGradient id="SVGID_14_" cx="975.77" cy="1046.46" r="66.9472" gradientUnits="userSpaceOnUse">
	<stop  offset="0" style="stop-color:#AE3531"/>
	<stop  offset="0" style="stop-color:#AE3531"/>
	<stop  offset="0.99" style="stop-color:#953A36"/>
	<stop  offset="1" style="stop-color:#953A36"/>
</radialGradient>
<path fill-rule="evenodd" clip-rule="evenodd" fill="url(#SVGID_14_)" d="M965.51,1022.37l30.56,58.96
	c18.07-9.8,32.22-21.74,45.18-34.53L965.51,1022.37z"/>
<linearGradient id="SVGID_15_" gradientUnits="userSpaceOnUse" x1="928.3506" y1="1098.0488" x2="911.6689" y2="1041.4531">
	<stop  offset="0" style="stop-color:#994939"/>
	<stop  offset="0" style="stop-color:#994939"/>
	<stop  offset="0.43" style="stop-color:#AA3A36"/>
	<stop  offset="0.99" style="stop-color:#B83936"/>
	<stop  offset="1" style="stop-color:#B83936"/>
</linearGradient>
<path fill-rule="evenodd" clip-rule="evenodd" fill="url(#SVGID_15_)" d="M915.03,1033.9l-4.33,51.56
	c8.17,11.16,19.41,12.13,31.2,11.26C933.37,1075.49,916.33,1033.04,915.03,1033.9z"/>
<linearGradient id="SVGID_16_" gradientUnits="userSpaceOnUse" x1="1056.3223" y1="910.5078" x2="1093.7223" y2="927.0168">
	<stop  offset="0" style="stop-color:#B9392F"/>
	<stop  offset="0" style="stop-color:#B9392F"/>
	<stop  offset="0.44" style="stop-color:#A23A36"/>
	<stop  offset="0.99" style="stop-color:#8D463A"/>
	<stop  offset="1" style="stop-color:#8D463A"/>
</linearGradient>
<path fill-rule="evenodd" clip-rule="evenodd" fill="url(#SVGID_16_)" d="M1037.58,918.32l60.71,8.52
	c-3.24-13.73-13.19-22.59-30.15-25.36L1037.58,918.32z"/>
</svg>
